<svg width="60%" height="100%" viewBox="0 0 393 393"  fill="none" xmlns="http://www.w3.org/2000/svg">
<path d="M94.4538 279.567C94.4538 279.567 82.5063 316.434 80.017 320.562C77.5276 324.691 75.8208 279.567 75.8208 279.567H94.4538ZM334.69 285.331C341.803 305.971 346.071 327.322 349.057 327.322C351.76 327.322 353.75 285.047 353.75 285.047L334.69 285.331Z" fill="#282421"/>
<path d="M64.5118 278.784C62.164 275.795 27.4595 176.437 53.0612 162.559C78.6655 148.681 81.7238 154.658 81.7238 154.658C81.7238 154.658 76.4593 125.337 88.4788 111.742C100.498 98.1474 197.504 95.9405 220.12 94.4468C242.663 92.9532 333.696 92.9532 345.003 105.762C356.312 118.574 356.312 148.681 355.529 153.165C386.395 149.392 382.624 178.003 383.337 199.854C384.048 221.704 371.318 284.12 371.318 284.12C275.022 290.883 157.89 286.327 64.5118 278.784Z" fill="#779CF8"/>
<path d="M234.415 194.515C232.564 203.127 222.181 213.09 213.789 215.797C193.308 222.415 180.506 227.254 159.17 224.622C150.494 223.553 132.644 218.928 123.896 219.925C114.508 220.991 101.636 226.543 91.7505 224.836C83.5719 223.412 79.5173 218.928 78.1658 214.017C78.1658 216.152 77.9521 218.145 77.5969 219.994C61.3838 208.82 47.0885 174.943 62.8769 156.154C62.8769 156.154 75.4653 185.69 77.741 207.255C78.3795 203.268 80.5136 199.926 83.1445 199.071C127.024 184.907 171.972 183.982 234.415 194.515Z" fill="#282421"/>
<path d="M62.8771 156.155C61.8808 159.855 59.9604 178.572 62.0945 181.776C65.1528 186.259 75.4656 182.772 80.8691 182.559C86.2752 182.345 87.7683 168.111 92.747 166.046C97.5816 180.352 108.535 192.025 121.193 200.281C133.851 208.537 148.147 213.804 162.442 218.715C167.776 220.564 173.607 222.343 179.013 220.778C183.636 219.426 187.263 215.797 190.108 211.811C198.356 200.209 200.987 184.835 197.149 171.171C193.308 157.507 182.995 145.764 169.91 140.211C174.32 134.587 178.657 128.893 183.067 123.272C179.867 113.308 170.051 106.545 159.811 104.411C149.57 102.276 124.821 104.483 114.794 107.259C87.6962 114.66 72.6904 120.781 62.8771 156.155Z" fill="#F8CA75"/>
<path d="M233.632 105.693L223.888 64.626L158.531 98.6474L177.022 143.912L140.181 166.688L143.381 171.171L186.908 149.106L233.632 105.693Z" fill="#282421"/>
<path d="M129.869 110.959C136.626 108.68 153.125 108.68 158.459 110.176C158.531 117.719 158.387 146.688 158.387 146.688C158.387 146.688 145.657 151.03 132.857 147.898C132.857 147.826 129.869 110.959 129.869 110.959Z" fill="#779CF8"/>
<path d="M93.9541 160.708C94.7366 166.401 95.5913 172.026 96.3739 177.719C102.702 170.174 105.191 160.21 108.249 150.816C111.308 141.422 115.504 131.669 123.824 126.333C127.951 123.699 133.781 122.489 137.55 125.692C142.102 129.606 140.323 137.577 135.56 141.277C130.865 144.978 124.465 145.55 118.49 145.905C118.845 158.645 119.131 171.457 116.927 183.982C114.721 196.508 109.601 208.893 100.57 217.86C96.5155 221.846 90.9678 225.261 85.4202 223.981C79.5893 222.629 76.1757 216.58 73.9695 210.955C69.7039 200.067 64.5835 184.124 66.7872 172.309C68.7076 162.631 86.0612 160.566 93.9541 160.708ZM122.828 118.788C124.82 117.719 126.669 116.084 127.096 113.877C128.092 108.469 119.983 104.624 120.838 99.2161C123.041 98.1474 129.158 98.4333 132.075 87.6147C134.35 79.3585 132.075 70.3195 131.292 66.5467C130.154 60.7113 119.345 57.0802 113.442 57.5077C106.046 58.0768 100.426 64.981 98.6496 72.2406C94.0261 71.6715 89.9716 77.2237 91.892 81.4934C93.3156 84.6249 96.7987 86.1185 99.2186 88.5392C102.418 91.6707 103.698 96.3679 103.626 100.924C103.556 106.903 99.2881 112.88 104.622 117.222C109.601 121.209 117.283 121.778 122.828 118.788Z" fill="#EF8AA5"/>
<path d="M180.436 152.666C191.601 139.215 202.766 125.762 214.217 112.453C224.174 100.924 234.984 88.8952 249.634 84.9113C259.02 82.349 268.906 83.4872 278.65 83.0597C308.661 81.7798 335.972 66.2641 361.929 51.1037C364.704 58.3633 364.135 66.7611 360.436 73.5932C359.015 76.2276 357.164 78.6484 356.026 81.4219C353.537 87.7569 355.388 94.8749 357.308 101.421C343.154 97.3651 327.935 102.276 314.708 108.825C301.479 115.371 288.962 123.772 274.667 127.328C269.191 128.683 263.289 129.465 258.879 132.952C255.11 135.942 252.976 140.426 250.842 144.695C245.152 156.297 238.611 167.471 231.426 178.145C224.316 188.68 216.42 198.785 206.465 206.614C196.436 214.445 184.133 219.712 171.475 219.498C164.007 219.354 159.384 215.44 154.763 209.534C149.498 202.844 149.001 190.174 152.487 182.417C158.887 168.395 170.762 164.339 180.436 152.666ZM144.591 80.0699C144.877 78.4346 145.588 76.5109 147.222 76.2276C148.86 76.0139 150.067 77.5796 151.56 78.3625C153.197 79.2175 155.187 78.8595 156.753 78.0071C158.318 77.0826 159.525 75.6585 160.593 74.2344C163.793 69.823 165.927 64.6262 166.852 59.2182C167.704 54.0214 167.493 48.3997 169.91 43.7025C171.83 39.8576 175.458 36.9399 179.582 35.8738C183.706 34.7329 188.329 35.5158 191.884 37.8644C193.735 32.8118 191.102 26.7626 186.481 24.0586C181.857 21.352 175.813 21.6379 171.12 24.2723C166.424 26.8347 163.011 31.3877 161.021 36.3708C159.028 41.3538 158.387 46.7618 158.246 52.1698C158.104 57.9358 158.459 63.8433 156.753 69.3234C156.256 70.8892 155.543 72.4549 154.263 73.5236C152.984 74.5898 150.991 74.8756 149.712 73.879C148.502 72.9545 148.147 71.1029 146.795 70.3201C145.516 69.5372 143.667 70.1063 142.743 71.3167C141.819 72.527 141.461 74.0928 141.392 75.5864C141.106 81.1386 142.602 105.835 145.374 107.542C143.881 104.911 144.023 99.7137 143.809 96.7239C143.382 91.1022 143.667 85.4804 144.591 80.0699Z" fill="#31686D"/>
<path d="M212.082 127.969C210.803 132.239 209.593 136.58 208.597 140.922C204.972 156.438 203.548 172.24 203.834 188.18C203.834 189.107 202.411 189.107 202.339 188.18C202.125 183.627 202.125 179.141 202.411 174.588C203.193 158.645 206.038 142.843 211.158 127.755C211.3 127.044 212.224 127.328 212.082 127.969ZM220.475 127.755C217.702 139.926 215.496 152.24 213.931 164.622C213.506 168.181 213.079 171.668 212.937 175.227C212.937 175.868 213.931 176.01 214.075 175.371C215.069 169.25 215.638 163.056 216.492 156.938C217.344 150.816 218.341 144.623 219.478 138.504C220.119 135.015 220.83 131.456 221.54 127.969C221.54 127.4 220.616 127.116 220.475 127.755ZM327.649 77.7209C315.205 85.3359 303.54 94.3054 293.086 104.411C290.1 107.328 287.255 110.318 284.411 113.38C284.125 113.663 284.552 114.091 284.838 113.805C294.723 103.131 305.888 93.5921 317.836 85.3359C321.177 82.9872 324.663 80.7829 328.148 78.648C328.787 78.29 328.29 77.2934 327.649 77.7209ZM133.071 161.99C129.017 168.325 124.962 174.73 120.91 181.134C120.624 181.634 121.335 182.062 121.69 181.562C125.886 175.299 130.013 168.964 134.137 162.559C134.564 161.918 133.496 161.277 133.071 161.99ZM140.04 161.349C136.057 166.046 133.141 171.526 131.079 177.292C130.013 180.21 129.23 183.2 128.661 186.259C128.092 189.249 127.593 192.453 127.951 195.512C127.951 195.798 128.448 195.939 128.52 195.584C129.089 192.666 129.23 189.677 129.799 186.759C130.368 183.769 131.22 180.851 132.216 178.003C134.278 172.309 137.267 166.971 140.822 161.99C141.178 161.563 140.395 160.921 140.04 161.349ZM171.403 139.57C168.986 138.004 166.71 136.225 164.789 134.09C163.793 133.021 162.941 131.955 162.158 130.745C161.304 129.535 160.593 128.255 159.811 127.044C159.597 126.689 158.956 126.903 159.1 127.328C159.883 130.176 161.873 132.81 163.793 134.945C165.786 137.222 168.203 139.215 170.762 140.708C171.475 141.208 172.185 140.07 171.403 139.57ZM93.671 146.333C90.7543 146.047 87.9097 144.909 85.5619 143.343C83.0751 141.705 81.2962 139.498 79.659 137.008C79.4479 136.652 78.7348 136.866 78.8789 137.363C79.8726 140.281 82.2925 142.774 84.7819 144.481C87.4128 146.261 90.4711 147.257 93.671 147.329C94.24 147.257 94.24 146.402 93.671 146.333Z" fill="#779CF8"/>
<path d="M379.637 80.852L373.093 77.7205C372.597 87.1149 371.387 96.0845 369.61 103.486L357.236 101.492C350.764 93.45 347.919 77.1514 349.412 68.8952C350.905 60.639 354.674 27.4726 363.566 21.068C366.979 24.4132 369.469 31.1036 371.031 39.4294C375.869 29.1104 387.319 3.41733 396.705 0C404.529 13.453 392.653 57.935 379.637 80.852ZM205.183 98.8606C202.338 99.7851 200.845 103.272 201.914 106.617C202.979 109.962 206.179 111.956 209.024 111.031C211.869 110.104 213.362 106.617 212.296 103.272C211.23 99.9267 208.028 97.9335 205.183 98.8606ZM183.067 141.991C180.578 134.873 177.378 127.968 174.389 121.064C172.896 117.649 171.403 114.163 169.91 110.745C169.127 109.038 168.416 107.328 167.634 105.621C166.851 103.841 166.141 101.848 165.144 100.213C164.859 99.7851 164.148 100.068 164.29 100.568C164.789 102.417 165.713 104.196 166.424 105.906C167.134 107.614 167.917 109.393 168.63 111.101C170.123 114.587 171.544 118.005 173.037 121.492C176.026 128.468 178.871 135.583 182.354 142.346C182.568 142.629 183.209 142.418 183.067 141.991ZM220.76 72.6679C216.35 78.5034 212.651 84.9105 209.879 91.6705C209.806 91.8843 210.162 92.0259 210.234 91.8122C213.292 85.1243 216.919 78.7892 221.257 72.9537C221.54 72.6679 221.043 72.382 220.76 72.6679ZM209.665 77.4372C205.752 82.1344 202.766 87.6145 199.921 92.953C197.076 98.4331 194.587 104.055 192.453 109.89C191.246 113.166 190.249 116.581 189.325 119.926C189.253 120.212 189.68 120.353 189.822 120.068C193.377 108.325 198.356 97.0811 204.686 86.6179C206.465 83.6281 208.455 80.7824 210.234 77.8647C210.447 77.5067 209.948 77.0818 209.665 77.4372ZM328.645 122.63C323.952 131.1 318.332 139.073 311.933 146.332C305.602 153.592 298.42 160.138 290.669 165.832C286.259 169.036 281.635 171.953 276.942 174.729C276.446 175.013 276.87 175.796 277.439 175.512C286.117 171.17 294.154 165.335 301.406 158.858C308.733 152.382 315.346 145.122 321.035 137.221C324.235 132.738 327.152 128.041 329.713 123.13C329.997 122.56 329 121.991 328.645 122.63ZM299.699 141.705C300.127 141.208 299.416 140.494 298.989 140.994C288.748 152.026 277.37 162.059 264.995 170.601C261.509 173.022 257.882 175.371 254.255 177.575C253.83 177.789 254.185 178.43 254.613 178.216C267.698 170.601 279.859 161.421 290.81 150.957C293.941 147.968 296.855 144.908 299.699 141.705ZM292.589 215.938C278.08 213.234 263.147 212.307 248.352 212.593C244.156 212.665 239.962 212.876 235.835 213.234C235.339 213.304 235.339 214.087 235.835 214.087C250.486 213.304 265.136 213.59 279.645 215.369C283.842 215.866 288.038 216.435 292.234 217.077C293.016 217.149 293.3 216.01 292.589 215.938ZM367.263 208.751C361.645 224.264 354.319 238.997 344.575 252.378C341.875 256.151 338.958 259.779 336.041 263.41C335.472 264.121 336.396 265.048 337.037 264.407C342.657 258.213 347.564 251.381 351.974 244.335C356.381 237.29 360.222 229.888 363.422 222.273C365.273 218.001 366.835 213.59 368.187 209.106C368.473 208.393 367.476 208.179 367.263 208.751ZM71.3386 223.481C70.0591 227.895 69.1349 232.379 67.6418 236.72C66.1487 241.134 64.3699 245.404 62.3078 249.532C61.9526 250.243 63.0183 250.884 63.3736 250.171C65.5077 245.973 67.2866 241.631 68.7797 237.217C70.2007 232.806 71.5522 228.181 71.9075 223.553C71.9796 223.198 71.4107 223.198 71.3386 223.481Z" fill="#F8CA75"/>
<path d="M144.519 110.959C151.349 110.959 156.894 111.956 156.894 113.236C156.894 114.518 151.349 115.515 144.519 115.515C137.692 115.515 132.144 114.518 132.144 113.236C132.075 111.956 137.692 110.959 144.519 110.959ZM126.172 87.2592C126.599 86.4043 126.741 85.1244 125.886 84.4831C125.461 84.1277 124.892 84.1277 124.393 83.9835C123.755 83.7698 123.824 83.1311 123.966 82.562C124.179 81.707 124.393 80.9242 124.607 80.0692C124.82 79.2168 125.104 78.3618 125.176 77.5789C125.176 77.2931 124.748 77.1514 124.607 77.4373C124.251 78.2202 124.038 79.1447 123.755 79.9997C123.541 80.7825 123.255 81.6349 123.042 82.4178C122.9 83.059 122.758 83.7698 123.186 84.3415C123.541 84.9106 124.179 84.9802 124.82 85.1244C126.313 85.4797 125.104 87.4009 124.465 87.97C123.469 88.825 122.048 89.2499 120.766 89.0387C120.197 88.9666 119.983 89.7495 120.552 89.8911C122.686 90.2465 125.176 89.2499 126.172 87.2592ZM97.9367 83.7003C98.5056 82.0624 98.1504 80.0692 97.2262 78.6477C96.7988 78.0064 96.1604 77.3652 95.3778 77.5068C94.7368 77.651 94.1679 78.3618 94.5231 79.003C94.6673 79.2863 95.0921 79.0726 94.9505 78.7172C94.8784 78.5034 95.0921 78.2202 95.3057 78.1481C95.5194 78.076 95.8051 78.1481 96.0162 78.2897C96.5157 78.6477 96.7988 79.2863 97.0125 79.7859C97.5119 80.9963 97.5119 82.2762 97.3678 83.5586C97.2983 84.0556 97.8672 84.0556 97.9367 83.7003ZM94.3815 66.5466C93.8126 67.6154 93.1716 68.612 92.6027 69.6781C95.0921 70.8885 97.723 71.5992 99.2187 73.8783C100.995 76.6544 101.636 81.2074 102.632 84.411C103.77 76.6544 112.518 71.5297 113.015 63.7705C117.708 67.26 123.042 70.9606 128.875 70.3194C132.713 69.8919 136.057 67.5433 139.185 65.3363C136.768 63.9148 133.995 63.1319 131.151 63.0598C132.289 62.4907 133.995 58.1488 135.133 57.5797C130.296 55.5865 125.389 52.3133 117.852 56.7968C117.638 56.3693 121.976 49.4651 123.114 49.2514C118.562 49.0376 111.805 52.2412 109.601 57.5076C105.832 57.5076 103.129 55.8002 99.9292 55.6586L101.422 59.3592C97.723 60.7833 94.3095 62.9877 91.5369 65.7638C92.4611 66.1192 93.4574 66.3329 94.3815 66.5466ZM121.834 103.486C121.548 102.631 120.838 101.137 120.838 99.216C116.286 100.426 111.025 97.4365 108.749 95.1575C113.3 102.703 119.842 104.341 121.834 103.486ZM114.793 91.8122C115.718 92.8089 116.997 93.378 118.349 93.4501C118.845 93.4501 118.845 92.7393 118.349 92.6672C117.211 92.5951 116.145 92.026 115.29 91.1736C114.863 90.7461 114.508 90.3186 114.294 89.7495C114.152 89.4636 114.08 89.2499 114.011 88.9666C113.939 88.825 113.939 88.6808 113.939 88.5391C113.939 88.3975 113.869 88.3254 113.797 88.1837C113.725 88.0421 113.511 87.97 113.442 88.1837C113.37 88.3975 113.37 88.5391 113.37 88.6808C113.37 88.825 113.442 89.0387 113.442 89.1804C113.511 89.4636 113.583 89.8216 113.725 90.1049C113.939 90.7461 114.366 91.3152 114.793 91.8122ZM96.302 156.438C96.943 156.651 97.2262 155.583 96.5852 155.441C89.9717 153.448 82.7893 153.806 76.4591 156.579C73.6865 157.79 71.0556 159.428 68.7799 161.49C67.5699 162.559 66.5042 163.697 65.5079 164.908C64.5837 166.046 63.5874 167.328 63.0185 168.68C62.8769 169.108 63.3738 169.605 63.6595 169.177C64.5837 168.039 65.2942 166.759 66.2905 165.618C67.2147 164.48 68.2804 163.414 69.3488 162.487C71.4803 160.566 73.9697 159 76.6032 157.79C82.7893 154.944 89.9022 154.589 96.302 156.438ZM90.3991 133.379C91.1096 134.731 91.8227 136.011 92.3916 137.435C93.5989 140.211 94.6673 143.057 95.4473 145.975C97.0125 151.882 97.4398 157.862 97.2262 163.911C97.1541 165.193 99.0745 165.121 99.2187 163.911C99.8571 157.72 99.0745 151.385 97.4398 145.405C96.5852 142.418 95.5194 139.498 94.1679 136.724C93.5294 135.37 92.8164 134.018 92.0338 132.738C91.2537 131.386 90.3991 130.034 89.2612 128.965C88.9059 128.61 88.1234 128.965 88.337 129.465C88.9755 130.817 89.758 132.097 90.3991 133.379ZM97.0846 176.509C97.4398 176.082 96.8709 175.512 96.5157 175.94C91.8227 180.351 86.7718 184.41 81.4378 187.897C80.7273 188.394 81.3657 189.604 82.1483 189.107C87.6265 185.476 92.6027 181.278 97.0846 176.509ZM137.054 127.186C137.764 127.327 138.119 126.189 137.337 126.047C135.772 125.692 134.209 125.762 132.713 126.189C131.292 126.544 129.727 127.258 128.731 128.396C128.448 128.751 128.803 129.251 129.23 129.037C130.438 128.324 131.575 127.685 132.999 127.327C134.351 126.972 135.702 126.972 137.054 127.186ZM131.575 137.435C133.071 137.149 134.564 136.724 135.985 136.153C137.409 135.583 138.83 134.945 139.968 133.876C140.253 133.593 139.968 133.021 139.543 133.165C138.191 133.734 136.909 134.517 135.56 135.159C134.209 135.797 132.785 136.366 131.364 136.794C130.937 136.866 131.151 137.507 131.575 137.435ZM130.438 133.307C131.151 133.093 131.861 132.738 132.572 132.452C133.213 132.169 133.923 131.955 134.634 131.741C136.057 131.314 137.478 130.958 138.974 130.672C139.257 130.603 139.399 130.248 139.329 130.034C139.257 129.748 138.974 129.606 138.688 129.676C137.123 129.89 135.63 130.317 134.209 130.817C133.496 131.1 132.785 131.386 132.075 131.669C131.364 131.955 130.723 132.31 130.154 132.738C129.941 132.952 130.226 133.379 130.438 133.307ZM154.335 125.337C154.477 123.557 154.69 121.492 154.263 119.712C154.193 119.357 153.552 119.285 153.411 119.712C153.056 121.422 153.267 123.271 153.125 124.979C152.984 126.758 152.77 128.538 152.415 130.248C151.704 133.804 150.636 137.221 149.215 140.567C148.859 141.349 149.997 142.06 150.353 141.277C151.918 137.863 152.984 134.304 153.625 130.672C153.98 128.893 154.263 127.116 154.335 125.337ZM265.919 128.965C266.416 128.965 266.488 128.182 266.061 128.11C256.034 126.689 246.931 120.781 242.094 111.742C241.88 111.314 241.242 111.67 241.455 112.097C246.007 121.422 255.537 128.254 265.919 128.965ZM268.123 129.32C267.554 129.534 267.768 130.317 268.337 130.175C274.17 128.823 279.787 126.689 285.407 124.623C290.952 122.561 296.43 120.212 301.834 117.719C312.643 112.739 323.098 106.973 333.127 100.496C338.816 96.7953 344.22 92.8089 349.626 88.7529C350.478 88.1116 349.554 86.8317 348.702 87.5425C339.455 94.9437 329.428 101.42 319.187 107.258C308.874 113.094 298.206 118.291 287.114 122.561C280.856 125.051 274.453 127.044 268.123 129.32ZM200.418 128.324C211.086 119.499 221.685 110.39 233.277 102.775C236.121 100.923 239.036 99.216 242.094 97.7198C245.294 96.2262 248.566 95.0879 251.91 94.0913C258.737 92.026 265.706 90.177 272.605 88.2558C276.515 87.115 280.428 86.0489 284.339 84.9106C288.321 83.7698 292.376 82.7732 296.217 81.4212C296.927 81.1379 296.644 80.0692 295.861 80.2829C292.234 81.0658 288.676 82.2041 285.193 83.1311C281.636 84.1277 278.08 85.1244 274.525 86.1184C267.484 88.1116 260.444 90.1049 253.403 92.0981C246.789 94.0192 240.531 96.5095 234.698 100.068C228.795 103.7 223.319 107.969 217.844 112.169C211.586 117.008 205.327 121.991 199.424 127.258C198.783 127.968 199.708 128.893 200.418 128.324ZM234.201 119.857C233.846 119.429 233.346 119.998 233.632 120.426C237.97 126.047 244.156 130.034 250.986 131.955C251.766 132.169 252.051 130.958 251.341 130.745C244.655 128.965 238.68 125.123 234.201 119.857ZM364.915 86.9013C365.556 92.5256 366.267 98.2194 367.476 103.769C367.618 104.554 368.756 104.197 368.614 103.486C367.904 98.3611 366.98 93.3084 366.339 88.2558C365.698 83.2007 365.201 78.1481 364.845 73.0955C364.135 63.0598 363.849 53.0241 364.063 42.9884C364.135 40.1428 364.204 37.3667 364.346 34.5185C364.49 31.6008 364.704 28.683 364.632 25.6932C364.632 25.3378 364.063 25.2683 363.991 25.6236C363.067 30.5346 362.997 35.7288 362.853 40.7119C362.639 45.8366 362.639 50.9613 362.783 56.1556C362.997 66.4771 363.708 76.724 364.915 86.9013ZM370.18 41.9918C371.032 46.9028 371.673 51.8859 372.1 56.8689C372.883 66.6883 372.738 76.6544 371.673 86.4764C371.104 92.026 370.038 97.5061 368.97 102.986C368.828 103.772 370.038 104.127 370.249 103.344C371.387 98.5027 372.1 93.5222 372.669 88.5391C373.238 83.5586 373.593 78.5755 373.735 73.5925C373.807 70.8885 373.593 54.4482 371.317 43.9155C370.107 38.4328 369.68 32.5278 367.762 27.2589C367.618 26.834 367.049 27.0452 367.121 27.4031C368.045 32.3836 369.325 37.153 370.18 41.9918ZM395.923 3.63116C395.853 3.20367 395.143 3.20367 395.071 3.63116C394.643 6.04931 394.857 8.61166 394.785 11.0324C394.715 13.4531 394.574 15.8712 394.43 18.292C394.005 23.2029 393.364 28.1139 392.368 33.0249C390.447 42.7747 387.461 52.2412 383.478 61.3524C381.203 66.405 378.641 71.2439 375.797 76.0132C375.3 76.8682 376.579 77.651 377.148 76.7961C387.533 59.7146 393.933 40.2844 395.781 20.3573C396.067 17.5812 396.209 14.8746 396.281 12.1011C396.35 9.25289 396.636 6.26305 395.923 3.63116ZM154.477 180.423C153.694 180.495 153.694 181.49 154.477 181.634C157.749 182.061 160.876 182.844 163.721 184.621C166.566 186.4 168.63 188.821 170.337 191.669C170.265 191.739 170.123 191.811 170.051 191.881C167.279 193.874 164.22 195.512 160.948 196.58C157.677 197.647 154.335 198.002 150.921 198.074C150.422 198.074 150.28 198.929 150.777 198.999C156.042 199.854 161.659 198.146 166.282 195.725C171.261 193.163 175.457 189.462 179.226 185.404C181.43 183.055 183.422 180.565 185.412 178.003C185.912 177.361 184.988 176.437 184.488 177.078C180.647 181.989 176.523 186.828 171.544 190.673C170.051 187.611 167.42 184.979 164.504 183.199C161.589 181.49 157.962 180.138 154.477 180.423ZM378.217 183.769C377.931 183.769 377.931 184.196 378.217 184.196C378.5 184.196 378.5 183.769 378.217 183.769ZM366.552 179.499C357.308 178.644 348.916 184.551 343.865 191.881C341.162 195.725 339.241 200.067 337.607 204.479C335.828 209.32 334.407 214.301 333.341 219.284C331.207 229.389 330.283 239.71 330.069 249.96C330.069 250.529 330.069 251.168 330.069 251.737C298.351 254.94 266.56 256.792 234.698 257.431C202.907 258.002 171.12 257.006 139.399 254.727C122.048 253.447 104.836 251.453 87.4823 250.029C87.6265 246.615 87.6265 243.269 87.5544 239.852C87.4823 236.151 87.5544 232.307 86.8439 228.606C86.6997 227.967 85.7756 228.109 85.7061 228.75C85.5619 232.451 85.9892 236.151 86.0613 239.78C86.0613 243.197 86.0613 246.542 85.9197 249.96C85.7061 250.101 85.7061 250.529 85.9197 250.671C85.9197 250.812 85.9197 250.954 85.9197 251.098C85.5619 258.571 84.7819 266.045 83.5719 273.446C83.4304 274.443 84.993 274.94 85.1371 273.873C86.3445 266.4 87.1271 258.855 87.4823 251.24C87.4823 251.168 87.4823 251.026 87.4823 250.954C102.774 253.375 118.276 254.657 133.64 255.865C149.498 257.075 165.358 258.002 181.216 258.571C212.937 259.638 244.797 259.496 276.515 257.858C294.366 256.934 312.219 255.582 329.997 253.73C329.997 258.286 330.069 262.769 330.211 267.325C330.283 270.242 330.424 273.16 330.566 276.008C330.707 278.926 330.779 281.916 331.207 284.834C331.348 285.616 332.558 285.403 332.558 284.62C332.628 282.057 332.414 279.567 332.273 277.005C332.131 274.584 332.059 272.163 331.917 269.673C331.704 264.834 331.562 259.923 331.562 255.012C331.562 245.19 332.059 235.296 333.696 225.619C335.259 216.294 337.679 206.758 341.875 198.216C345.785 190.317 352.115 183.127 361.005 181.206C365.556 180.21 370.321 180.993 374.162 183.769C377.717 186.331 380.134 190.387 380.42 194.801C380.42 195.298 381.203 195.298 381.203 194.801C382.055 186.758 374.234 180.21 366.552 179.499ZM351.261 157.72C351.974 157.148 352.754 156.651 353.536 156.224C353.892 156.01 354.319 155.796 354.605 155.513C354.888 155.227 355.03 154.872 355.315 154.589C355.529 154.444 355.315 154.089 355.03 154.161C354.674 154.303 354.319 154.161 353.964 154.231C353.681 154.303 353.323 154.517 353.04 154.658C352.257 155.086 351.474 155.583 350.764 156.082C349.34 157.007 347.991 158.076 346.781 159.214C344.292 161.421 342.088 163.983 340.168 166.687C336.255 172.309 333.624 178.786 332.628 185.618C332.273 188.324 332.131 191.028 332.273 193.732C332.203 193.449 331.917 193.235 331.562 193.163C317.339 191.456 302.972 190.529 288.607 190.459C274.239 190.387 259.875 191.17 245.652 192.808C241.739 193.235 237.898 193.732 234.059 194.373C232.067 194.657 230.077 195.015 228.084 195.37C226.022 195.725 223.96 196.009 222.04 196.65C221.613 196.792 221.685 197.433 222.109 197.433C223.816 197.363 225.453 197.005 227.16 196.792C229.009 196.508 230.787 196.222 232.636 196.009C236.191 195.512 239.749 195.015 243.376 194.657C250.486 193.804 257.599 193.235 264.709 192.808C279.005 191.953 293.3 191.881 307.523 192.736C315.56 193.163 323.597 193.874 331.634 194.87C332.059 194.943 332.273 194.657 332.345 194.373C332.414 195.298 332.486 196.295 332.628 197.219C332.772 198.146 334.407 197.932 334.265 197.005C332.558 183.91 337.465 170.46 347.065 161.421C348.347 159.925 349.768 158.786 351.261 157.72ZM193.236 220.849C196.294 220.708 199.352 220.208 202.411 219.925C205.397 219.711 208.455 219.567 211.513 219.497C217.63 219.425 223.747 219.781 229.791 220.494C233.346 220.921 236.832 221.491 240.387 221.988C241.17 222.129 241.525 220.991 240.742 220.777C234.698 219.212 228.44 218.501 222.254 218.145C215.995 217.787 209.807 217.86 203.548 218.359C200.063 218.642 196.508 218.928 193.166 219.781C192.525 219.994 192.667 220.921 193.236 220.849Z" fill="#282421"/>
<path d="M296.461 131.996C298.858 136.137 304.493 136.176 307.049 140.474C308.298 142.575 309.093 145.006 309.405 147.425C309.827 150.672 308.416 152.348 305.919 154.148C305.373 154.542 305.718 155.282 306.357 155.191C311.624 154.452 311.294 147.883 310.162 144.095C309.461 141.754 308.267 139.575 306.699 137.713C304.179 134.718 299.736 134.335 296.917 131.644C296.68 131.417 296.291 131.708 296.461 131.996Z" fill="#1D0E07"/>
<path d="M274.813 127.969C270.432 127.284 264.568 128.033 260.536 129.877C256.963 131.51 253.905 135.708 256.842 139.442C257.128 139.805 257.771 139.501 257.743 139.068C257.619 137.078 256.87 135.517 257.98 133.622C259.074 131.755 261.635 130.92 263.569 130.346C267.271 129.244 271.06 129.509 274.811 128.896C275.272 128.821 275.274 128.041 274.813 127.969Z" fill="#1D0E07"/>
<path d="M257.347 141.86C252.759 146.158 243.6 158.318 254.029 161.638C254.667 161.841 254.95 160.963 254.459 160.618C252.348 159.137 250.476 157.952 250.502 155.078C250.52 153.129 251.686 151.21 252.659 149.596C254.199 147.036 256.554 144.94 257.898 142.285C258.078 141.929 257.646 141.582 257.347 141.86Z" fill="#1D0E07"/>
<path d="M390.13 306.922C385.517 295.802 375.64 294.62 365.705 289.354C356.914 284.953 347.878 273.408 342.868 268.497C337.856 263.589 316.026 303.422 317.465 314.473C318.798 324.725 362.372 352.442 362.372 352.442C362.372 352.442 367.428 349.691 372.499 348.139C378.299 346.362 382.626 346.756 383.52 342.2C384.186 338.798 386.596 335.953 387.808 334.346C393.856 326.347 393.964 316.105 390.13 306.922Z" fill="#F9EFE3"/>
<path d="M364.758 343.933C365.152 342.901 367.095 343.74 367.819 343.452C368.715 343.096 369.031 342.736 369.415 341.824C370.076 340.266 368.583 338.237 367.803 337.037C365.52 333.529 363.085 330.851 364.114 326.383C365.157 321.846 367.53 319.44 372.133 318.771C372.759 318.681 372.561 317.754 371.992 317.723C366.197 317.39 361.326 324.207 362.572 329.831C363.345 333.323 365.834 336.007 367.677 338.973C368.251 339.898 369.412 342.257 367.095 342.504C366.485 342.568 365.831 342.293 365.226 342.465C364.459 342.684 364.228 342.962 364.037 343.732C363.919 344.211 364.588 344.374 364.758 343.933Z" fill="#CF5443"/>
<path d="M387.69 316.483C393.513 321.042 396.803 327.626 396.296 335.223C395.792 344.34 384.65 347.69 386.676 357.314C387.69 360.352 394.273 362.572 386.171 363.584C381.108 364.596 374.839 358.009 375.537 352.949C377.308 340.085 389.943 330.372 382.879 327.879" fill="#F9EFE3"/>
<path d="M360.176 335.172C356.649 330.63 352.138 326.561 347.337 323.398C342.418 320.159 336.693 318.923 332.983 313.824C330.751 310.757 331.286 306.623 329.636 303.469C325.605 295.766 313.011 293.868 305.306 292.454C288.895 289.439 269.353 282.586 253.202 290.021C250.46 291.283 247.824 293.021 245.188 294.788C240.76 297.752 236.338 300.798 231.431 301.81C221.849 303.788 211.959 300.304 202.508 303.721C193.83 307.107 183.618 313.522 182.884 324.099C181.839 336.797 189.343 343.586 200.106 348.1C209.078 351.932 217.972 354.242 227.011 356.073C231.766 356.364 236.495 357.142 241.265 357.088C247.011 357.023 252.291 355.372 257.684 353.557C262.549 351.916 267.58 350.297 272.782 350.583C277.903 350.863 282.848 352.298 287.574 354.234C297.393 358.262 306.398 363.724 315.457 369.194C316.219 369.655 316.989 370.108 317.758 370.559C324.22 371.352 329.245 371.849 331.521 371.833C341.208 371.766 351.696 370.816 359.388 364.527C368.861 356.003 367.487 344.593 360.176 335.172Z" fill="#1D0E07"/>
<path d="M261.491 196.244C252.805 196.056 242.719 203.161 238.76 210.57C234.005 219.47 229.534 225.972 220.843 231.795C210.617 238.642 195.995 255.806 204.241 268.757C208.362 275.231 214.368 276.133 221.306 278.499C241.921 285.527 255.3 305.058 275.333 313.283C282.984 316.425 289.021 321.369 296.564 319.373C303.811 317.094 312.571 308.442 319.218 305.022C325.579 301.597 329.925 300.744 337.171 300.471C344.117 300.193 350.761 295.918 354.229 289.622C357.125 283.887 354.805 278.407 352.481 272.911C347.803 260.702 349.245 249.623 348.64 236.412C347.832 218.811 330.609 179.381 306.985 193.391C300.505 197.235 295.014 203.779 287.075 204.503C277.313 205.396 270.697 196.651 261.841 196.257C261.725 196.249 261.61 196.246 261.491 196.244Z" fill="#A400BF"/>
<path d="M356.337 359.886C350.2 368.058 341.885 371.282 332.515 373.893C301.419 382.559 262.753 379.059 253.447 378.124C244.138 377.189 221.86 386.88 219.187 384.065C216.518 381.248 239.71 368.737 243.672 364.89C246.545 362.099 252.715 364.55 259.705 364.259C267.613 363.932 288.764 352.117 312.17 347.912C335.575 343.706 362.477 351.718 356.337 359.886Z" fill="#F38C7F"/>
<path d="M188.043 329.465C191.578 339.055 198.616 344.53 206.841 349.727C234.137 366.96 272.18 374.714 281.363 376.494C290.548 378.273 309.106 393.954 312.473 392.025C315.838 390.094 297.218 371.449 294.525 366.623C292.574 363.126 285.96 363.7 279.35 361.416C271.869 358.83 255.002 341.435 233.789 330.683C212.577 319.932 184.509 319.875 188.043 329.465Z" fill="#F38C7F"/>
<path d="M240.081 297.064L259.931 288.277C259.507 283.371 257.877 283.966 253.256 283.771C248.115 283.554 242.961 279.127 234.265 266.689C228.37 258.26 219.036 243.092 209.024 255.827C205.479 260.333 206.017 264.693 208.707 268.291C209.691 269.607 210.965 270.822 212.43 271.901C219.813 277.345 226.923 283.322 233.992 289.166C236.744 291.44 238.042 294.944 240.081 297.064Z" fill="#F38C7F"/>
<path d="M235.514 317.65C232.595 315.899 225.878 289.614 228.216 287.569C230.551 285.524 279.98 285.555 283.149 287.876C286.321 290.198 287.84 315.683 286.087 317.988C284.336 320.29 238.433 319.404 235.514 317.65Z" fill="#F9EFE3"/>
<path d="M278.907 129.604C267.919 129.398 258.26 136.418 254.538 143.894C249.752 153.507 255.171 157.635 257.447 170.288C259.823 183.514 274.262 187.024 284.035 184.23C291.014 181.904 302.647 168.408 304.972 161.892C308.877 148.437 304.019 130.078 278.907 129.604Z" fill="#1D0E07"/>
<path d="M299.35 161.823C302.364 157.1 304.439 161.246 304.65 164.041C305.229 169.132 301.968 170.831 297.712 172.22" fill="#F38C7F"/>
<path d="M299.272 151.036C302.521 160.906 298.281 176.443 290.754 183.244C280.588 192.43 266.519 191.796 259.947 180.859C256.567 175.238 252.958 160.778 253.895 154.115C254.35 150.873 255.146 138.309 274.389 135.234C293.632 132.159 297.277 144.973 299.272 151.036Z" fill="#F38C7F"/>
<path d="M256.757 165.521C257.205 167.069 258.886 167.805 260.343 168.127C261.497 168.379 264.001 168.544 264.558 167.236C264.648 167.022 264.622 166.785 264.406 166.659C263.517 166.131 262.333 166.708 261.34 166.693C259.728 166.67 258.791 165.639 257.455 164.983C257.095 164.808 256.634 165.096 256.757 165.521Z" fill="#1D0E07"/>
<path d="M272.605 167.033C273.962 168.702 276.369 168.573 278.294 168.22C280.101 167.888 283.389 166.896 284.352 165.23C284.473 165.019 284.31 164.808 284.094 164.785C282.483 164.599 280.657 165.967 279.185 166.49C276.917 167.293 275.241 167.144 273.05 166.268C272.577 166.08 272.353 166.721 272.605 167.033Z" fill="#1D0E07"/>
<path d="M263.986 164.583C265 168.158 262.514 171.168 262.12 174.583C261.726 177.977 267.106 176.777 268.671 175.963C269.184 175.695 268.942 174.879 268.38 174.889C266.983 174.918 265.026 175.873 263.713 175.191C263.088 174.866 264.13 172.51 264.277 172.085C265.155 169.551 265.919 166.947 264.866 164.341C264.653 163.811 263.821 164.004 263.986 164.583Z" fill="#CF5443"/>
<path d="M257.612 160.636C258.523 160.339 259.177 160.051 260.176 160.128C261.347 160.218 262.228 160.929 263.293 161.29C264.094 161.565 264.467 160.553 264.037 160.012C262.784 158.439 257.985 157.465 256.914 159.729C256.698 160.182 257.053 160.818 257.612 160.636Z" fill="#1D0E07"/>
<path d="M273.176 160.682C276.35 159.304 278.824 158.607 282.15 160.067C283.129 160.494 283.898 159.243 282.995 158.622C279.926 156.508 275.038 157.139 272.278 159.518C271.583 160.113 272.466 160.991 273.176 160.682Z" fill="#1D0E07"/>
<path d="M265.168 179.445C269.752 181.521 275.21 179.775 279.061 176.772C279.262 176.615 279.095 176.244 278.85 176.268C277.033 176.427 275.493 177.385 273.874 178.184C270.962 179.621 268.563 179.636 265.456 178.763C265.057 178.65 264.774 179.268 265.168 179.445Z" fill="#1D0E07"/>
<path d="M262.037 201.191C261.695 202.221 262.228 203.483 264.233 205.139C266.519 207.024 269.057 208.373 271.67 209.751C273.622 210.776 275.303 211.731 276.876 213.281C278.302 214.688 279.924 216.766 281.862 217.44C287.994 219.57 292.049 214.283 295.655 210.474C296.999 209.055 298.655 207.77 300.32 206.738C304.452 204.181 309.76 201.788 312.18 197.315C315.913 190.411 307.829 191.026 303.505 190.573C294.749 189.661 298.361 174.05 298.482 168.364C298.482 168.364 274.718 184.689 274.713 184.691C274.752 184.665 275.087 190.483 274.757 191.382C274.093 193.195 272.79 194.544 271.243 195.651C268.501 197.619 262.84 198.762 262.037 201.191Z" fill="#F38C7F"/>
<path d="M283.064 174.894C283.819 177.766 287.806 178.268 290.823 175.958C294.291 173.3 296.652 167.416 294.229 165.258C289.701 161.223 281.798 171.374 283.064 174.894Z" fill="#CF5443"/>
<path d="M298.886 168.601C299.156 168.068 299.252 167.442 299.434 166.875C299.676 166.136 299.983 165.413 300.431 164.774C300.93 164.061 301.27 164.313 301.934 164.537C302.614 164.769 302.995 164.339 302.567 163.713C302.207 163.19 301.419 163.069 300.842 163.152C300.204 163.244 299.712 163.826 299.367 164.316C298.925 164.944 298.662 165.711 298.433 166.435C298.242 167.035 297.993 167.728 298.011 168.364C298.024 168.807 298.665 169.033 298.886 168.601Z" fill="#CF5443"/>
<path d="M277.192 189.659C284.042 188.608 293.143 186.038 295.264 178.41C295.413 177.862 294.697 177.622 294.394 178.044C292.038 181.336 290.246 183.949 286.501 185.811C283.509 187.297 280.114 187.802 276.927 188.698C276.294 188.876 276.572 189.754 277.192 189.659Z" fill="#CF5443"/>
<path d="M299.854 145.138C297.063 136.294 289.618 133.037 280.778 132.57C274.729 132.107 267.894 132.419 261.939 136.06C250.242 143.216 251.987 156.525 252.512 158.248C252.888 159.492 257.72 156.909 258.322 156.631C259.187 156.234 260.698 154.949 261.638 154.96C264.107 154.988 263.87 158.274 265.61 159.144C269.652 161.163 274.064 154.432 277.962 154.045C281.509 153.695 280.755 155.918 281.968 158.027C283.438 160.584 286.012 158.153 287.513 156.752C289.013 155.348 290.293 153.474 292.172 155.328C293.578 156.718 294.466 158.248 295.218 160.738C295.702 162.343 295.241 164.509 296.86 166.435C298.479 168.361 300.114 162.013 300.377 160.504C301.18 155.881 301.267 149.613 299.854 145.138Z" fill="#1D0E07"/>
<path d="M304.807 138.504C301.337 133.41 293.171 130.712 291.248 129.599C289.325 128.489 293.4 127.511 293.23 126.813C293.071 126.161 289.4 125.816 287.428 128.113C286.123 126.424 283.25 124.487 282.364 125.067C281.432 125.677 284.874 128.906 283.263 128.208C281.649 127.511 268.785 126.638 262.503 131.35C259.108 133.794 256.732 137.284 253.676 140.25C252.147 141.821 250.11 142.694 252.147 144.44C253.506 145.486 255.372 145.836 256.902 146.184C261.654 146.709 266.746 145.661 271.161 144.265C276.253 142.519 279.921 141.734 285.932 143.915C291.946 146.096 305.206 158.424 306.864 158.249C308.519 158.073 309.122 144.837 304.807 138.504Z" fill="#1D0E07"/>
<path d="M305.932 243.511C296.212 239.875 282.563 241.796 278.395 250.132C276.69 253.544 278.395 257.809 277.543 261.649C276.69 265.486 270.723 268.47 271.145 272.308C271.516 275.686 275.97 278.462 278.688 279.106C283.698 280.291 294.335 278.468 304.704 274.538C315.071 270.605 317.11 265.169 316.639 255.226C316.387 249.859 310.654 245.278 305.932 243.511Z" fill="#F9EFE3"/>
<path d="M286.071 247.145C280.132 240.321 275.238 247.998 269.997 251.413C268.251 252.69 264.058 252.69 265.456 256.105C266.153 258.237 270.697 257.809 272.095 257.382C275.938 256.957 275.238 256.957 278.734 258.237C280.482 258.662 281.877 260.369 283.625 258.662" fill="#F9EFE3"/>
<path d="M307.394 247.998C316.775 241.173 323.172 252.69 329.145 258.237C331.276 259.942 333.835 259.942 329.145 262.929C325.731 264.634 324.454 262.076 321.468 261.221C318.057 260.369 310.38 261.221 309.953 255.677" fill="#F9EFE3"/>
<path d="M310.216 260.771C312.242 267.356 322.369 266.849 320.343 274.446C318.824 280.019 310.216 282.045 309.204 287.616C308.192 292.174 312.749 296.732 311.23 301.795C309.204 307.875 293.508 318.511 294.013 305.341C294.013 302.81 297.558 301.29 297.558 298.756C297.558 296.732 295.027 294.705 294.013 292.174C292.494 286.096 293.506 284.07 288.949 278.499C287.937 276.98 286.923 276.98 286.418 274.953" fill="#F9EFE3"/>
<path d="M336.69 287.883C333.145 283.73 316.196 286.851 310.095 296.343C304.936 304.365 299.012 313.376 294.724 314.282C292.739 314.704 289.606 311.176 286.403 310.324C283.201 309.472 281.358 309.018 278.861 307.566C276.595 306.088 273.593 305.614 275.238 309.163C276.381 311.622 279.818 312.237 280.709 314.596C281.6 316.953 277.993 315.99 276.219 314.704C272.183 311.944 268.751 310.298 267.176 309.325C265.6 308.351 264.704 310.27 264.496 310.535C262.838 310.463 259.118 307.035 259.023 310.957C254.564 311.174 259.908 315.268 261.17 316.116C270.255 322.046 283.335 328.5 294.569 326.226C299.362 325.255 318.662 314.164 324.877 310.455C342.006 300.234 340.232 292.037 336.69 287.883Z" fill="#F38C7F"/>
<path d="M300.477 261.608C299.247 258.476 294.173 259.2 292.224 261.198C291.552 261.883 292.401 262.944 293.23 262.501C295.086 261.51 297.725 260.209 299.368 262.254C299.777 262.764 300.716 262.216 300.477 261.608Z" fill="#1D0E07"/>
<path d="M279.03 258C279.679 258.257 280.183 258.407 280.6 259.007C281.025 259.622 281.19 260.372 281.589 260.99C282.006 261.641 283.02 261.227 282.835 260.464C282.485 259.02 280.727 256.208 278.932 257.253C278.6 257.446 278.716 257.876 279.03 258Z" fill="#1D0E07"/>
<path d="M276.304 269.542C276.029 271.466 277.769 273.64 279.911 273.848C282.212 274.07 284.941 272.228 285.039 271.443C285.229 269.924 276.683 266.885 276.304 269.542Z" fill="#1D0E07"/>
<path d="M273.953 274.605C273.889 277.183 277.442 275.658 278.554 276.518C280.243 277.824 283.697 278.416 285.293 276.675C285.422 276.536 285.347 276.237 285.121 276.261C282.868 276.5 281.213 277.278 279.069 275.854C278.585 275.534 278.407 275.321 277.854 275.31C277.02 275.292 274.595 276.147 274.45 274.605C274.422 274.291 273.961 274.278 273.953 274.605Z" fill="#1D0E07"/>
<path d="M308.365 255.234C311.688 256.239 314.028 252.899 317.349 254.415C320.209 255.724 321.599 258.822 324.768 259.733C325.394 259.914 325.631 258.986 325.033 258.773C321.9 257.64 320.201 254.603 317.213 253.259C313.951 251.794 311.693 255.335 308.524 254.663C308.151 254.583 307.997 255.121 308.365 255.234Z" fill="#CF5443"/>
<path d="M268.877 254.451C270.29 254.876 271.84 254.055 273.084 253.452C274.049 252.983 274.986 252.45 276.003 252.095C277.416 251.603 277.509 252.435 277.898 253.542C278.029 253.911 278.652 254.001 278.734 253.542C279.059 251.719 277.707 250.635 276.011 251.08C273.848 251.652 271.33 254.531 269.021 253.923C268.679 253.836 268.54 254.351 268.877 254.451Z" fill="#CF5443"/>
<path d="M291.317 278.566C295.869 277.397 304.663 277.891 307.031 272.885C307.188 272.553 306.828 272.035 306.462 272.316C303.911 274.273 301.63 275.316 298.472 275.957C295.951 276.47 293.333 276.668 291.06 277.958C290.728 278.146 290.954 278.659 291.317 278.566Z" fill="#CF5443"/>
<path d="M383.448 330.766C383.157 334.325 382.336 337.119 380.325 340.075C378.845 342.251 376.721 344.27 376.397 346.974C376.358 347.276 376.757 347.363 376.942 347.201C379.172 345.239 380.861 341.994 382.392 339.452C384.004 336.781 384.629 333.748 384.148 330.67C384.081 330.248 383.479 330.392 383.448 330.766Z" fill="#CF5443"/>
<path d="M293.683 139.284C295.727 142.655 295.799 146.807 298.006 150.056C298.266 150.443 298.757 150.517 299.105 150.201C301.02 148.46 301.108 146.361 300.081 144.092C299.161 142.066 296.754 138.898 294.566 138.203C294.113 138.058 293.815 138.571 293.997 138.944C294.703 140.392 296.428 141.496 297.47 142.732C299.102 144.666 300.289 147.213 298.114 149.209C298.482 149.256 298.847 149.304 299.216 149.351C296.963 146.093 297.298 141.599 294.355 138.767C294.01 138.432 293.428 138.862 293.683 139.284Z" fill="#A400BF"/>
<path d="M287.976 137.49C285.469 137.621 284.72 139.746 285.021 141.927C285.211 143.305 285.747 144.636 286.107 145.973C286.292 146.665 286.444 147.386 286.292 148.1C286.151 148.767 285.335 148.847 284.946 149.331C284.683 149.658 284.786 150.06 285.178 150.214C287.507 151.131 287.878 147.708 287.608 146.297C287.345 144.937 286.792 143.637 286.439 142.3C285.904 140.271 286.398 139.272 288.2 138.309C288.578 138.105 288.414 137.467 287.976 137.49Z" fill="#A400BF"/>
<path d="M279.139 134.513C275.347 136.012 273.565 139.135 272.62 142.972C272.486 143.526 272.435 144.327 272.378 144.899C272.162 147.057 270.72 148.223 268.918 149.112C267.647 149.74 266.952 150.58 266.918 151.983C266.903 152.563 267.652 152.694 267.945 152.261C269.683 149.704 272.471 149.745 273.586 146.647C274.175 145.015 274 143.068 274.461 141.376C275.182 138.744 277.03 136.462 279.44 135.229C279.831 135.028 279.553 134.348 279.139 134.513Z" fill="#A400BF"/>
<path d="M266.841 137.123C264.483 138.447 261.988 140.206 261.461 143.008C260.959 145.681 261.291 148.89 257.597 148.511C257.857 148.709 258.117 148.91 258.377 149.109C257.846 145.686 260.318 143.6 262.781 141.772C263.234 141.434 262.967 140.775 262.403 140.87C258.482 141.545 256.227 145.835 256.814 149.539C256.873 149.915 257.264 150.103 257.597 150.134C260.145 150.386 261.8 149.302 262.411 146.806C262.714 145.56 262.701 144.249 262.905 142.987C263.286 140.657 265.865 139.374 267.438 137.896C267.853 137.505 267.322 136.853 266.841 137.123Z" fill="#A400BF"/>
<path d="M269.783 203.987C272.085 206.382 276.433 210.394 280.078 209.24C280.371 209.147 280.338 208.784 280.078 208.679C278.237 207.929 276.422 207.502 274.703 206.431C273.176 205.483 271.84 204.254 270.373 203.222C269.907 202.895 269.412 203.6 269.783 203.987Z" fill="#CF5443"/>
<path d="M291.016 206.331C294.332 206.326 297.532 204.095 299.602 201.595C299.785 201.373 299.62 200.91 299.283 201.049C298.093 201.538 297.138 202.504 296.155 203.315C294.651 204.556 292.983 205.383 291.016 205.512C290.494 205.545 290.484 206.333 291.016 206.331Z" fill="#CF5443"/>
<path d="M249.261 231.092C249.845 234.684 250.136 237.563 247.292 240.211C245.309 242.055 242.46 243.203 240.969 245.572C239.939 247.213 239.63 248.974 239.422 250.875C239.136 253.455 238.482 254.884 236.886 256.854C236.127 257.792 235.699 258.562 235.378 259.703C235.226 260.236 235.99 260.769 236.369 260.279C238.06 258.101 239.978 255.94 240.722 253.241C241.723 249.603 241.087 247.076 244.244 244.37C246.321 242.59 249.284 241.2 250.311 238.462C251.251 235.959 250.551 233.409 249.982 230.893C249.874 230.414 249.184 230.626 249.261 231.092Z" fill="#CF5443"/>
<path d="M315.132 227.417C314.71 230.211 315.24 232.943 315.997 235.634C316.646 237.942 317.617 241.537 319.576 243.069C319.905 243.327 320.389 243.1 320.289 242.655C319.789 240.424 318.327 238.308 317.573 236.126C316.633 233.417 315.938 230.445 316.288 227.574C316.365 226.917 315.233 226.765 315.132 227.417Z" fill="#CF5443"/>
<path d="M263.502 212.671C268.318 215.264 272.831 217.893 276.708 221.797C279.285 224.393 281.545 225.75 285.245 224.985C289.297 224.148 292.744 220.468 295.696 217.821C299.795 214.144 304.163 211.61 308.715 208.597C309.127 208.324 308.872 207.574 308.362 207.76C300.405 210.682 295.485 217.01 288.756 221.735C286.395 223.394 283.404 224.656 280.59 223.281C278.569 222.294 276.909 220.219 275.264 218.725C272.023 215.789 267.762 213.909 263.844 212.086C263.453 211.906 263.111 212.462 263.502 212.671Z" fill="#CF5443"/>
<path d="M236.024 291.084C236.06 291.048 236.096 291.012 236.129 290.978C236.08 290.927 236.029 290.878 235.98 290.829C235.854 290.958 235.499 291.195 235.499 291.388C235.499 291.426 235.529 291.46 235.568 291.46C235.761 291.46 236.001 291.105 236.129 290.976C236.227 290.881 236.078 290.731 235.98 290.826C235.944 290.863 235.908 290.899 235.872 290.932C235.774 291.03 235.928 291.182 236.024 291.084Z" fill="#CF5443"/>
<path d="M234.43 292.461C249.614 292.418 265.109 289.026 280.233 291.171C280.928 291.272 281.257 290.254 280.531 290.085C273.485 288.429 266.01 289.479 258.881 289.956C250.757 290.502 242.362 290.306 234.345 291.843C233.99 291.913 234.083 292.464 234.43 292.461Z" fill="#A400BF"/>
<path d="M210.141 255.09C208.558 258.487 209.127 262.422 212.924 263.897C216.474 265.275 218.057 261.845 217.28 258.909C217.097 258.221 216.057 258.209 215.882 258.909C215.449 260.637 215.565 262.319 217.239 263.277C218.598 264.054 220.868 263.658 221.829 262.45C222.045 262.177 221.939 261.677 221.517 261.701C219.391 261.811 216.428 262.836 217.28 259.293C216.814 259.293 216.348 259.293 215.882 259.293C216.528 261.631 215.467 263.521 212.919 262.424C210.097 261.211 209.961 257.905 210.911 255.414C211.081 254.969 210.342 254.657 210.141 255.09Z" fill="#CF5443"/>
<path d="M322.328 287.211C322.016 290.368 321.357 294.447 325.386 295.253C328.308 295.838 331.281 292.588 331.251 289.868C331.243 289.106 330.272 288.895 329.871 289.495C328.151 292.078 329.629 294.241 332.473 294.89C335.745 295.634 337.892 291.522 339.573 289.436C339.89 289.042 339.496 288.434 339.012 288.71C338.093 289.23 337.383 289.943 336.657 290.708C336.106 291.287 335.588 291.895 335.048 292.485C333.709 293.95 329.06 293.417 331.15 290.242C330.689 290.118 330.229 289.992 329.77 289.868C329.811 292.346 326.578 295.052 324.169 293.172C322.753 292.068 323.546 288.743 323.502 287.208C323.481 286.438 322.4 286.467 322.328 287.211Z" fill="#CF5443"/>
<path d="M186.563 326.226C185.453 329.749 183.677 337.606 189.492 338.201C193.735 338.634 196.981 334.755 195.63 330.702C195.462 330.202 194.819 329.978 194.425 330.385C192.576 332.286 192.074 336.568 195.148 337.73C199.571 339.396 203.52 333.931 205.587 330.746C205.832 330.372 205.335 329.837 204.954 330.115C203.687 331.039 202.67 332.193 201.61 333.341C200.737 334.289 199.818 335.131 198.765 335.886C195.596 338.155 193.086 333.872 195.444 331.402C195.043 331.297 194.641 331.191 194.239 331.083C195.431 334.557 192.11 338.08 188.561 336.504C184.977 334.912 187.052 329.136 187.369 326.334C187.423 325.858 186.697 325.806 186.563 326.226Z" fill="#CF5443"/>
<path d="M334.502 348.983C332.288 356.032 342.897 359.9 345.231 352.743C345.494 351.937 344.274 351.432 343.872 352.169C338.842 361.417 353.626 361.417 356.754 355.097C357.032 354.53 356.378 354.049 355.907 354.443C353.716 356.264 351.572 357.598 348.689 357.984C344.966 358.481 343.314 356.333 345.157 352.921C344.704 352.728 344.251 352.537 343.798 352.347C343.015 354.77 341.028 355.566 338.68 354.973C335.936 354.281 335.274 351.569 335.56 349.125C335.634 348.497 334.674 348.427 334.502 348.983Z" fill="#CF5443"/>
<path d="M278.842 359.995C281.594 364.864 288.223 360.734 292.399 361.79C298.901 363.433 300.039 372.33 304.701 376.079C305.157 376.448 305.775 376 305.512 375.454C304.313 372.971 302.511 370.646 301.02 368.32C299.614 366.126 298.008 363.736 295.902 362.147C294.131 360.811 292.375 360.09 290.149 360.105C286.357 360.134 282.845 362.511 279.571 359.433C279.187 359.075 278.58 359.531 278.842 359.995Z" fill="#CF5443"/>
<path d="M245.744 367.646C251.153 368.575 256.348 370.36 261.44 372.371C267.16 374.63 273.822 375.912 279.88 376.917C280.353 376.994 280.737 376.319 280.232 376.08C274.955 373.584 268.653 373.396 263.077 371.694C257.231 369.907 251.982 367.733 245.821 367.061C245.492 367.025 245.415 367.589 245.744 367.646Z" fill="#CF5443"/>
<path d="M261.316 342.184C266.931 342.977 272.538 342.89 277.789 345.292C281.211 346.856 284.521 349.4 288.357 349.732C288.954 349.784 289.189 348.864 288.661 348.602C280.011 344.291 271.318 340.523 261.394 341.623C261.103 341.656 260.974 342.135 261.316 342.184Z" fill="#A400BF"/>
<path d="M192.123 315.165C195.653 310.762 199.617 308.828 205.222 308.449C209.662 308.148 214.224 309.281 218.616 308.601C219.115 308.521 219.107 307.689 218.616 307.604C209.706 306.062 196.783 305.892 191.619 314.776C191.441 315.083 191.889 315.456 192.123 315.165Z" fill="#A400BF"/>
<path d="M331.691 320.076C334.512 326.043 339.283 330.248 344.926 333.48C351.529 337.263 357.499 341.005 358.436 349.125C358.503 349.704 359.393 349.941 359.532 349.274C360.773 343.328 355.689 338.638 351.297 335.553C348.326 333.47 345.016 331.94 341.973 329.97C337.854 327.297 335.3 323.499 332.368 319.68C332.064 319.283 331.472 319.61 331.691 320.076Z" fill="#A400BF"/>
<path d="M362.323 290.195C369.42 292.904 377.272 292.776 383.883 296.824C388.112 299.412 391.451 304.277 391.897 309.244C392.283 313.527 389.829 317.4 388.174 321.139C387.911 321.734 388.681 322.208 389.054 321.654C393.634 314.871 394.878 306.805 389.32 300.208C382.341 291.923 372.095 292.441 362.5 289.544C362.076 289.415 361.921 290.041 362.323 290.195Z" fill="#F9EFE3"/>
<path d="M390.213 314.735C392.862 320.045 397.555 324.199 397.921 330.451C398.335 337.562 392.715 342.395 387.204 345.619C386.676 345.928 387.026 346.776 387.621 346.608C393.799 344.865 398.219 338.973 399.105 332.761C400.155 325.412 394.466 320.027 390.815 314.382C390.571 314.001 390.01 314.333 390.213 314.735Z" fill="#F9EFE3"/>
<path d="M-21.6486 325.69L8.88289 316.623L43.9221 323.059C43.9221 323.059 48.5739 328.322 45.1371 334.974C37.1413 338.046 16.7346 346.161 16.7346 346.161L-21.6486 338.703C-21.6486 338.703 -22.5188 337.825 -20.6292 337.387C-20.6292 334.83 -20.6292 326.86 -20.6292 326.86C-20.6292 326.86 -21.937 326.569 -21.6486 325.69Z" fill="#5D85BD"/>
<path d="M18.1249 344.456C21.6878 338.162 17.9653 332.803 17.9653 332.803C17.9653 332.803 23.7885 330.761 26.7515 329.633L27.3565 329.515C30.5203 335.742 28.1236 340.513 28.1236 340.513L18.1249 344.456Z" fill="#3F5983"/>
<path d="M-20.8813 326.859V337.387L16.4335 344.407C16.4335 344.407 20.2384 340.166 16.4335 333.001C0.62973 329.929 -20.8813 326.859 -20.8813 326.859Z" fill="#F2F2F2"/>
<path d="M16.4335 344.407L-20.8813 337.387V326.859C-20.8813 326.859 -10.0383 328.407 1.9066 330.403C5.9071 331.989 8.76718 333.127 8.76718 333.127L12.881 332.327C14.0883 332.551 15.2751 332.777 16.4335 333.001C17.7027 335.391 18.1249 337.454 18.1249 339.143C18.1223 342.522 16.4335 344.407 16.4335 344.407Z" fill="#DAD9D7"/>
<path d="M46.2906 324.354L8.64882 331.886L-18.5541 321.194C-18.5541 321.194 -21.0821 316.481 -17.7123 311.292C-12.3448 313.411 9.1225 320.504 9.1225 320.504L46.2906 314.143V324.354Z" fill="#F2F2F2"/>
<path d="M174.464 349.519H174.471C174.726 349.54 174.978 349.568 175.215 349.637C175.452 349.704 175.673 349.807 175.867 349.944C176.253 350.214 176.51 350.639 176.629 351.116C176.75 351.592 176.75 352.11 176.672 352.612C176.59 353.114 176.433 353.616 176.16 354.036L176.155 354.044C176.119 354.1 176.127 354.178 176.181 354.224C176.237 354.275 176.327 354.268 176.376 354.211C176.755 353.776 176.973 353.243 177.097 352.694C177.218 352.146 177.239 351.564 177.105 350.997C177.038 350.714 176.925 350.436 176.762 350.186C176.598 349.934 176.381 349.715 176.129 349.552C175.879 349.388 175.599 349.28 175.316 349.223C175.03 349.171 174.744 349.158 174.466 349.179C174.384 349.184 174.317 349.249 174.309 349.334C174.301 349.429 174.371 349.511 174.464 349.519ZM143.113 346.622C143.144 346.702 143.183 346.782 143.221 346.859C143.296 347.013 143.389 347.155 143.484 347.297C143.677 347.575 143.901 347.832 144.143 348.064C144.624 348.53 145.173 348.922 145.749 349.249C146.326 349.578 146.931 349.849 147.546 350.08C147.698 350.145 147.855 350.196 148.012 350.248C148.167 350.302 148.321 350.359 148.481 350.405L148.952 350.549L149.428 350.675C150.7 351.005 151.995 351.213 153.295 351.363C153.944 351.438 154.595 351.494 155.246 351.533C155.573 351.551 155.897 351.571 156.224 351.584C156.551 351.597 156.878 351.608 157.203 351.613C159.813 351.651 162.447 351.481 164.995 350.838C166.264 350.513 167.521 350.08 168.671 349.424C169.243 349.097 169.794 348.718 170.278 348.255C170.517 348.023 170.741 347.773 170.934 347.495C171.125 347.217 171.284 346.91 171.374 346.573C171.395 346.501 171.351 346.424 171.279 346.403C171.207 346.382 171.13 346.424 171.107 346.498V346.501C171.022 346.792 170.872 347.067 170.69 347.322C170.507 347.577 170.291 347.809 170.059 348.023C169.593 348.45 169.057 348.806 168.496 349.11C167.369 349.715 166.146 350.134 164.897 350.436C163.646 350.737 162.367 350.915 161.082 351.026C159.798 351.134 158.505 351.162 157.213 351.134C155.923 351.108 154.631 351.01 153.349 350.874C152.067 350.729 150.79 350.528 149.547 350.209C148.921 350.055 148.308 349.867 147.706 349.65C147.104 349.434 146.517 349.179 145.958 348.873C145.405 348.561 144.874 348.208 144.411 347.781C144.177 347.57 143.965 347.335 143.78 347.085C143.693 346.959 143.605 346.83 143.533 346.694C143.497 346.627 143.463 346.557 143.433 346.488C143.404 346.424 143.376 346.344 143.361 346.29L143.358 346.277C143.335 346.189 143.245 346.135 143.157 346.156C143.064 346.176 143.008 346.266 143.028 346.359C143.052 346.462 143.08 346.537 143.113 346.622ZM168.414 350.822H168.411C168.097 350.902 167.791 350.992 167.485 351.08L166.571 351.345C166.264 351.432 165.961 351.523 165.654 351.615C165.35 351.711 165.044 351.808 164.743 351.927L164.74 351.929C164.642 351.968 164.573 352.066 164.578 352.179C164.583 352.321 164.702 352.434 164.846 352.429C165.178 352.416 165.505 352.37 165.829 352.303C166.151 352.238 166.473 352.153 166.787 352.05C167.101 351.947 167.412 351.832 167.714 351.69C168.015 351.551 168.308 351.394 168.584 351.203C168.656 351.154 168.692 351.067 168.669 350.977C168.643 350.863 168.527 350.794 168.414 350.822ZM180.953 362.006C180.953 370.796 163.512 371.929 157.854 371.936C152.162 371.944 134.752 370.785 134.752 362.006C134.752 357.525 139.288 355.033 144.483 353.663C144.462 353.521 144.444 353.377 144.431 353.23C144.421 353.117 144.506 353.014 144.619 353.003C144.722 352.993 144.812 353.057 144.841 353.153L144.843 353.16C144.879 353.287 144.918 353.415 144.957 353.542C146.957 353.044 149.039 352.707 150.983 352.483C150.466 352.383 149.948 352.269 149.436 352.138C148.007 351.765 146.589 351.262 145.312 350.467C145.191 350.392 145.155 350.235 145.229 350.114C145.302 350.001 145.448 349.962 145.567 350.024L145.572 350.026C146.82 350.706 148.203 351.141 149.601 351.468C150.298 351.638 151.011 351.759 151.722 351.878C152.08 351.929 152.435 351.989 152.795 352.027L153.333 352.097L153.871 352.153C154.013 352.166 154.157 352.177 154.299 352.192C155.707 352.102 156.935 352.074 157.854 352.074C163.492 352.074 180.953 353.22 180.953 362.006Z" fill="white"/>
<path d="M158.184 351.144C158.23 351.172 158.284 351.182 158.338 351.169L158.348 351.167C158.387 351.157 158.426 351.151 158.464 351.141C159.298 350.961 160.176 350.873 161.015 350.958C161.124 350.969 161.229 350.984 161.337 351.002C161.662 351.054 161.981 351.136 162.274 351.262C162.326 351.283 162.377 351.306 162.429 351.332C162.753 351.494 163.041 351.713 163.265 351.986C163.523 352.3 163.695 352.684 163.791 353.096C163.888 353.505 163.919 353.943 163.901 354.381C163.883 354.821 163.824 355.264 163.737 355.704C163.69 355.926 163.641 356.145 163.585 356.364C163.528 356.585 163.466 356.794 163.402 357.028C163.273 357.481 163.165 357.945 163.08 358.414C163.034 358.645 163.003 358.882 162.967 359.117C162.941 359.356 162.908 359.59 162.895 359.83C162.854 360.306 162.854 360.788 162.884 361.269C162.915 361.748 162.972 362.233 163.09 362.704C163.106 362.768 163.124 362.833 163.142 362.897C163.376 363.77 163.767 364.622 164.38 365.318C164.54 365.508 164.725 365.676 164.916 365.835C165.114 365.987 165.317 366.134 165.541 366.25C165.752 366.358 165.974 366.459 166.205 366.523L166.877 366.116C166.509 366.067 166.149 365.933 165.824 365.743C165.642 365.637 165.472 365.503 165.309 365.367C165.152 365.22 164.998 365.071 164.864 364.901C164.323 364.259 163.986 363.453 163.796 362.619C163.791 362.596 163.785 362.57 163.778 362.547C163.595 361.682 163.559 360.78 163.631 359.887C163.693 358.988 163.881 358.099 164.107 357.221C164.357 356.325 164.573 355.377 164.596 354.404C164.612 353.917 164.573 353.42 164.45 352.928C164.329 352.442 164.094 351.963 163.752 351.569C163.631 351.427 163.497 351.301 163.35 351.187C163.175 351.048 162.985 350.93 162.787 350.832C162.694 350.783 162.596 350.739 162.501 350.703C162.03 350.52 161.543 350.433 161.059 350.405C160.575 350.376 160.096 350.405 159.625 350.466C159.152 350.528 158.693 350.623 158.23 350.765C158.127 350.799 158.065 350.904 158.088 351.012C158.101 351.069 158.137 351.115 158.184 351.144ZM166.414 365.763C166.854 365.622 167.279 365.431 167.686 365.202C167.786 365.143 167.886 365.083 167.984 365.019L168.278 364.823L168.558 364.604C168.651 364.53 168.741 364.45 168.829 364.367C169.176 364.04 169.495 363.662 169.714 363.214C169.933 362.771 170.051 362.258 169.995 361.766C169.984 361.674 169.912 361.597 169.817 361.584C169.704 361.566 169.596 361.643 169.578 361.759V361.766C169.513 362.179 169.364 362.552 169.148 362.894C168.929 363.237 168.646 363.543 168.332 363.824C168.018 364.102 167.673 364.36 167.315 364.599C166.954 364.839 166.579 365.063 166.203 365.3L166.2 365.302C166.102 365.362 166.053 365.483 166.092 365.598C166.133 365.732 166.28 365.807 166.414 365.763ZM144.769 363.865C145.114 364.277 145.515 364.622 145.938 364.929C146.362 365.233 146.813 365.488 147.271 365.714C147.732 365.941 148.203 366.144 148.682 366.317C149.163 366.487 149.647 366.644 150.136 366.773C150.628 366.907 151.12 367.023 151.617 367.115C152.61 367.306 153.614 367.435 154.621 367.509C155.625 367.584 156.634 367.61 157.641 367.571C158.647 367.538 159.651 367.453 160.647 367.311C161.644 367.162 162.632 366.968 163.6 366.685C163.703 366.657 163.77 366.549 163.744 366.441C163.721 366.327 163.608 366.258 163.497 366.281C162.534 366.495 161.559 366.657 160.578 366.757C159.597 366.86 158.611 366.92 157.628 366.925C155.658 366.93 153.684 366.788 151.761 366.392C150.798 366.198 149.851 365.949 148.934 365.619C148.02 365.289 147.13 364.883 146.342 364.347C145.948 364.079 145.582 363.778 145.279 363.43C144.977 363.082 144.746 362.688 144.632 362.266C144.586 362.052 144.55 361.836 144.563 361.617C144.576 361.401 144.617 361.182 144.694 360.973C144.769 360.762 144.874 360.559 145.001 360.366C145.127 360.172 145.273 359.987 145.433 359.814L145.436 359.812C145.526 359.714 145.526 359.557 145.43 359.462C145.333 359.359 145.17 359.356 145.07 359.454C144.697 359.82 144.36 360.25 144.154 360.765C144.048 361.02 143.981 361.295 143.955 361.576C143.93 361.857 143.961 362.14 144.015 362.415C144.146 362.964 144.426 363.453 144.769 363.865ZM174.693 355.218C174.883 354.96 175.051 354.697 175.192 354.43C174.124 353.943 172.981 353.552 171.802 353.232C171.73 353.531 171.645 353.832 171.544 354.136C171.943 354.249 172.34 354.368 172.731 354.494C173.365 354.7 174.029 354.94 174.693 355.218ZM179.659 357.654C178.979 356.863 178.184 356.183 177.303 355.599C177.164 355.841 177.015 356.078 176.858 356.307C178.781 357.479 180.341 359.122 180.56 361.473C181.288 369.363 168.499 370.829 163.201 371.31C158.068 371.774 152.868 371.594 147.791 370.692C142.828 369.814 131.892 366.528 135.826 359.261C137.321 356.498 140.66 355.138 143.618 354.288C143.541 354.043 143.471 353.799 143.404 353.559C141.008 354.244 138.645 355.236 136.825 356.879C134.173 359.271 133.656 362.959 135.643 365.807C135.875 366.139 136.137 366.459 136.438 366.765C141.43 371.846 151.117 372.307 157.818 372.307C163.783 372.307 170.407 371.73 175.838 369.093C177.445 368.313 178.871 367.151 179.862 365.784C181.592 363.394 181.986 360.373 179.659 357.654ZM164.578 352.179C164.576 352.13 164.589 352.086 164.609 352.048C164.589 352.086 164.576 352.13 164.578 352.179Z" fill="#17292F"/>
<path d="M171.066 347.272C170.95 344.478 160.32 344.071 158.699 344.024C154.289 343.898 146.746 344.171 145.06 346.981C145.001 347.141 144.988 347.295 145.011 347.444C145.078 347.511 145.145 347.578 145.217 347.643C145.68 348.07 146.21 348.423 146.764 348.735C147.323 349.041 147.91 349.296 148.512 349.512C149.114 349.729 149.727 349.917 150.353 350.071C150.819 350.19 151.287 350.293 151.761 350.383L151.774 350.385C152.561 350.535 153.357 350.645 154.155 350.736C155.437 350.872 156.729 350.97 158.019 350.996C159.311 351.024 160.604 350.996 161.888 350.887C163.173 350.777 164.452 350.599 165.703 350.298C166.952 349.996 168.175 349.577 169.302 348.972C169.863 348.668 170.399 348.312 170.865 347.885C170.919 347.836 170.97 347.784 171.022 347.733C171.058 347.586 171.073 347.432 171.066 347.272ZM169.477 349.286C169.863 349.067 170.237 348.822 170.589 348.544C170.087 349.118 169.23 349.564 168.2 349.911C168.635 349.726 169.063 349.523 169.477 349.286Z" fill="#FABE57"/>
</svg>